<?xml version="1.0" encoding="UTF-8" standalone="no"?>
<!-- Created with Inkscape (http://www.inkscape.org/) -->

<svg
   width="83.375122mm"
   height="29.999952mm"
   viewBox="0 0 315.11858 113.38565"
   version="1.1"
   id="svg1"
   inkscape:version="1.4 (e7c3feb1, 2024-10-09)"
   sodipodi:docname="Logos-Blanc.svg"
   xmlns:inkscape="http://www.inkscape.org/namespaces/inkscape"
   xmlns:sodipodi="http://sodipodi.sourceforge.net/DTD/sodipodi-0.dtd"
   xmlns="http://www.w3.org/2000/svg"
   xmlns:svg="http://www.w3.org/2000/svg">
  <sodipodi:namedview
     id="namedview1"
     pagecolor="#0f0f0f"
     bordercolor="#ffffff"
     borderopacity="1"
     inkscape:showpageshadow="0"
     inkscape:pageopacity="0"
     inkscape:pagecheckerboard="false"
     inkscape:deskcolor="#3c3c3c"
     inkscape:document-units="mm"
     inkscape:export-bgcolor="#c9c9c900"
     showguides="true"
     inkscape:zoom="0.03125"
     inkscape:cx="4672"
     inkscape:cy="7136"
     inkscape:current-layer="layer1"
     inkscape:lockguides="false">
    <inkscape:page
       x="7.4068478e-14"
       y="0"
       width="315.11859"
       height="113.38565"
       id="page2"
       margin="0"
       bleed="0" />
  </sodipodi:namedview>
  <defs
     id="defs1" />
  <g
     inkscape:label="Calque 1"
     inkscape:groupmode="layer"
     id="layer1"
     transform="translate(-751.5298,-458.05475)">
    <path
       style="font-size:124.846px;font-family:'Source Code Pro';-inkscape-font-specification:'Source Code Pro, Normal';baseline-shift:baseline;white-space:pre;display:inline;overflow:visible;vector-effect:none;fill:#f8f9fa;fill-opacity:0.92549;stroke-width:1.78839;stroke-linecap:round;stroke-linejoin:round;paint-order:stroke markers fill;enable-background:accumulate;stop-color:#000000"
       d="m 1002.4054,474.48295 c 17.9026,12.07398 53.7077,36.22193 53.7077,36.22193 0,0 2.6684,1.80861 2.6423,3.18879 -0.036,1.91363 -3.8285,4.27924 -3.8285,4.27924 0,0 -35.0143,23.61466 -52.5215,35.42197 v 5.85769 c 14.2519,-9.66679 28.5038,-19.33357 42.7557,-29.00034 6.1993,-4.20492 12.3987,-8.40982 18.5981,-12.61473 0.3832,-0.20903 3.011,-2.51243 2.8848,-3.95322 -0.1214,-1.38517 -2.4867,-3.44839 -2.8848,-3.64746 -20.4513,-13.87052 -40.9026,-27.74105 -61.3538,-41.61156 0,1.95255 0,3.90512 0,5.85769 z"
       id="path25"
       sodipodi:nodetypes="ccscccscsccc"
       inkscape:export-filename="H-Blanc.png"
       inkscape:export-xdpi="96"
       inkscape:export-ydpi="96" />
    <path
       style="font-size:124.846px;font-family:'Source Code Pro';-inkscape-font-specification:'Source Code Pro, Normal';baseline-shift:baseline;white-space:pre;display:inline;overflow:visible;vector-effect:none;fill:#e63946;fill-opacity:0.92549;stroke:none;stroke-width:1.78839;stroke-linecap:round;stroke-linejoin:round;stroke-opacity:1;paint-order:stroke markers fill;enable-background:accumulate;stop-color:#000000"
       d="m 872.5982,571.43691 h 8.2748 V 458.10797 h -8.2748 c 0,37.7763 0,75.55263 0,113.32894 z"
       id="path22" />
    <path
       style="font-size:124.846px;font-family:'Source Code Pro';-inkscape-font-specification:'Source Code Pro, Normal';baseline-shift:baseline;white-space:pre;display:inline;overflow:visible;vector-effect:none;fill:#f8f9fa;fill-opacity:0.92549;stroke-width:1.78839;stroke-linecap:round;stroke-linejoin:round;paint-order:stroke markers fill;enable-background:accumulate;stop-color:#000000"
       d="m 815.7729,474.47354 c -17.90263,12.07398 -53.70773,36.22193 -53.70773,36.22193 0,0 -2.6685,1.80861 -2.6423,3.18881 0.036,1.91361 3.8285,4.27923 3.8285,4.27923 0,0 35.0143,23.61466 52.52153,35.42196 v 5.85769 c -14.25193,-9.66679 -28.50383,-19.33356 -42.75573,-29.00034 -6.1993,-4.20492 -12.3987,-8.40982 -18.5981,-12.61473 -0.3832,-0.20903 -3.011,-2.51243 -2.8848,-3.95322 0.1214,-1.38517 2.4867,-3.44838 2.8848,-3.64746 20.4513,-13.87052 40.9025,-27.74105 61.35383,-41.61156 0,1.95255 0,3.90512 0,5.85769 z"
       id="path27"
       sodipodi:nodetypes="ccscccscsccc" />
    <path
       style="font-size:124.846px;font-family:'Source Code Pro';-inkscape-font-specification:'Source Code Pro, Normal';baseline-shift:baseline;white-space:pre;display:inline;overflow:visible;vector-effect:none;fill:#e63946;fill-opacity:0.92549;stroke-width:1.78839;stroke-linecap:round;stroke-linejoin:round;paint-order:stroke markers fill;enable-background:accumulate;stop-color:#000000"
       d="m 935.9244,458.1072 c -3.9343,0.20744 -7.651,3.5474 -7.5588,7.62861 -0.2871,3.21344 1.3421,6.65071 4.4425,7.88247 3.8794,1.62384 9.2598,0.90043 11.5587,-2.95041 1.5881,-2.9903 1.5649,-7.14749 -0.7664,-9.75568 -1.9234,-2.17388 -4.824,-3.0965 -7.676,-2.80499 z"
       id="path82" />
    <path
       style="font-size:124.846px;font-family:'Source Code Pro';-inkscape-font-specification:'Source Code Pro, Normal';baseline-shift:baseline;white-space:pre;display:inline;overflow:visible;vector-effect:none;fill:#e63946;fill-opacity:0.92549;stroke-width:1.78839;stroke-linecap:round;stroke-linejoin:round;paint-order:stroke markers fill;enable-background:accumulate;stop-color:#000000"
       d="m 896.0354,506.53332 38.0007,0.17901 c 0.8821,-0.002 1.8654,0.28098 2.5155,1.28702 0.359,0.65023 0.2962,0.49673 0.3586,3.26138 v 60.17273 l 8.6661,0.007 c -0.039,-23.61123 -0.079,-47.22244 -0.1188,-70.83367 h -49.4218 z"
       id="path83"
       sodipodi:nodetypes="ccccccccc" />
  </g>
</svg>
