<?xml version="1.0" encoding="UTF-8" standalone="no"?>
<!-- Created with Inkscape (http://www.inkscape.org/) -->

<svg
   width="249.99998mm"
   height="27.955755mm"
   viewBox="0 0 944.88186 105.65955"
   version="1.1"
   id="svg1"
   inkscape:version="1.4 (e7c3feb1, 2024-10-09)"
   sodipodi:docname="Logos-Blanc.svg"
   xmlns:inkscape="http://www.inkscape.org/namespaces/inkscape"
   xmlns:sodipodi="http://sodipodi.sourceforge.net/DTD/sodipodi-0.dtd"
   xmlns="http://www.w3.org/2000/svg"
   xmlns:svg="http://www.w3.org/2000/svg">
  <sodipodi:namedview
     id="namedview1"
     pagecolor="#0f0f0f"
     bordercolor="#ffffff"
     borderopacity="1"
     inkscape:showpageshadow="0"
     inkscape:pageopacity="0"
     inkscape:pagecheckerboard="false"
     inkscape:deskcolor="#3c3c3c"
     inkscape:document-units="mm"
     inkscape:export-bgcolor="#c9c9c900"
     showguides="true"
     inkscape:zoom="0.03125"
     inkscape:cx="4672"
     inkscape:cy="7136"
     inkscape:current-layer="layer1"
     inkscape:lockguides="false">
    <inkscape:page
       x="0"
       y="-8.5018857e-13"
       width="944.88184"
       height="105.65955"
       id="page2"
       margin="0"
       bleed="0" />
  </sodipodi:namedview>
  <defs
     id="defs1" />
  <g
     inkscape:label="Calque 1"
     inkscape:groupmode="layer"
     id="layer1"
     transform="translate(-430.5548,-937.67744)">
    <path
       id="path36"
       style="font-size:124.846px;font-family:'Source Code Pro';-inkscape-font-specification:'Source Code Pro, Normal';white-space:pre;fill:#f8f9fa;fill-opacity:0.92549;stroke-width:10.4902;stroke-linecap:round;stroke-linejoin:round;paint-order:stroke markers fill"
       d="m 766.93712,1043.2944 h 7.00084 c -0.0265,-19.6125 0.0539,-39.2258 -0.0405,-58.83776 -0.074,-6.64006 0.0461,-19.92701 0.0461,-19.92701 0,0 0.006,-8.30251 0,-12.12834 0.0469,-1.88652 2.16344,-2.20711 2.68955,-2.17047 1.09218,0.0965 1.88724,0.70021 2.316,1.96661 3.8254,8.14519 7.48119,16.37279 11.41749,24.46401 11.32084,22.21094 22.64174,44.42196 33.96262,66.63296 h 10.33583 V 938.03894 h -7.00085 l -0.0245,59.2025 v 22.84146 c 0,0 0.042,5.4011 0,8.0687 0.0265,2.0105 -0.0134,2.6134 -1.03095,2.8219 -1.58914,0.3098 -2.24764,-0.7449 -3.58868,-3.159 -3.82532,-8.1452 -7.84816,-15.0515 -11.78447,-23.1427 -11.32081,-22.21092 -22.64171,-44.42192 -33.96261,-66.63286 h -10.33574 v 105.25546 z"
       sodipodi:nodetypes="cccccccccccccccccccccc"
       inkscape:export-filename="Henicos-Blanc.png"
       inkscape:export-xdpi="96"
       inkscape:export-ydpi="96" />
    <path
       id="path74"
       style="font-size:124.846px;font-family:'Source Code Pro';-inkscape-font-specification:'Source Code Pro, Normal';white-space:pre;fill:#f8f9fa;fill-opacity:0.92549;stroke-width:10.4902;stroke-linecap:round;stroke-linejoin:round;paint-order:stroke markers fill"
       d="m 668.36007,938.03894 v 105.25546 h 64.31463 v -5.4664 h -53.3106 c -2.2807,-0.02 -2.98785,-1.2262 -2.98785,-1.2262 -0.45295,-0.9345 -0.38678,-1.3554 -0.33414,-3.9222 v -44.32438 -2.54664 c 0.0315,-0.6448 0.11738,-1.02736 0.33414,-1.46956 0,0 0.4299,-1.2348 2.98135,-1.22628 h 43.08515 l 0.0356,-5.63835 h -43.10128 c -2.11848,-0.11737 -2.85695,-1.06225 -3.00085,-1.22627 -0.24252,-0.38538 -0.31478,-0.77019 -0.33413,-1.6772 v -2.34549 -23.59769 c -0.009,-3.00467 -0.0356,-3.47776 0.33413,-4.0649 0.18172,-0.23397 1.02633,-1.17972 2.98135,-1.22627 h 51.61397 v -5.29763 z"
       sodipodi:nodetypes="ccccccccccccccccccccccc" />
    <path
       style="font-size:124.846px;font-family:'Source Code Pro';-inkscape-font-specification:'Source Code Pro, Normal';white-space:pre;fill:#f8f9fa;fill-opacity:0.92549;stroke-width:10.4902;stroke-linecap:round;stroke-linejoin:round;paint-order:stroke markers fill"
       d="m 588.3163,982.65608 34.83783,0.16416 c 0,0 1.91882,-0.27317 2.79202,1.1975 0.33336,0.62069 0.33336,0.4758 0.33336,4.01625 v 54.90761 h 7.8516 V 937.67748 h -7.8516 v 34.2268 c 0,2.77169 -0.20113,3.65466 -0.33336,4.0227 -0.51942,1.22404 -2.25709,1.26354 -2.96059,1.2262 h -34.66858"
       id="path69"
       sodipodi:nodetypes="cccsccccsccc" />
    <path
       style="font-size:124.846px;font-family:'Source Code Pro';-inkscape-font-specification:'Source Code Pro, Normal';white-space:pre;fill:#f8f9fa;fill-opacity:0.92549;stroke-width:10.4905;stroke-linecap:round;stroke-linejoin:round;paint-order:stroke markers fill"
       d="m 574.11742,979.44018 v -41.7627 h -7.68245 v 105.26002 h 7.68245 v -47.46677"
       id="path34" />
    <path
       id="path33"
       style="font-size:124.846px;font-family:'Source Code Pro';-inkscape-font-specification:'Source Code Pro, Normal';white-space:pre;fill:#f8f9fa;fill-opacity:0.92549;stroke-width:10.2884;stroke-linecap:round;stroke-linejoin:round;paint-order:stroke markers fill"
       d="m 1203.3753,938.03923 c -9.1149,0.15434 -18.5627,2.92795 -25.1452,9.21499 -4.4028,4.13675 -6.9765,9.9763 -6.909,15.90466 -0.1112,4.839 1.2478,9.82316 4.5643,13.55645 4.0845,5.21489 10.253,8.34915 16.3315,10.94169 7.6647,3.15571 15.3055,6.37035 22.9377,9.59777 4.7857,2.17035 9.798,4.51181 12.966,8.76611 3.4937,4.3215 4.1704,10.2294 3.1292,15.4779 -1.4992,6.9672 -7.6963,12.2096 -14.5278,14.3505 -7.0826,2.1833 -14.7526,2.1953 -22.0239,0.9323 -8.6443,-1.5221 -16.6076,-5.6947 -23.1963,-11.2108 -1.4004,1.5622 -2.8007,3.1246 -4.201,4.687 7.9963,6.7922 18.0863,11.3838 28.7241,12.5366 9.4195,0.9862 19.4002,0.382 27.9602,-3.8396 6.6132,-3.1679 12.2222,-8.6653 14.3772,-15.5674 1.6618,-5.2724 1.6352,-11.0929 -0.2199,-16.3154 -1.9815,-4.8913 -5.8324,-8.91962 -10.4175,-11.69786 -5.5231,-3.72071 -11.9838,-5.7447 -18.0616,-8.43181 -6.8303,-2.94529 -13.8429,-5.54096 -20.4388,-8.96011 -4.263,-2.4555 -8.3244,-5.99315 -9.4777,-10.83195 -1.555,-5.93249 -0.027,-12.75608 4.7251,-16.99768 5.5815,-5.19871 13.7102,-6.8133 21.2511,-6.51277 6.923,0.0976 13.7776,1.90986 19.792,5.20626 1.9801,1.05549 3.8651,2.27275 5.6559,3.60385 1.0924,-1.35194 2.408,-2.72149 3.3674,-4.06295 -5.6798,-4.58676 -12.563,-7.78581 -19.7864,-9.3628 -3.7309,-0.78025 -7.5629,-1.07029 -11.3766,-0.98495 z"
       sodipodi:nodetypes="ccccccccccccccccccccccccccc" />
    <path
       d="m 1094.5734,938.03902 c -0.8624,-0.0239 -1.7246,-0.021 -2.5856,0.01 -8.8171,0.17437 -17.524,3.66256 -23.7048,9.7393 -5.6895,5.5017 -9.3713,12.65452 -11.6366,20.03707 -0.1545,0.52404 -0.5234,1.80659 -0.7202,2.62989 -0.963,3.7989 -1.5466,7.67889 -1.8815,11.57361 -0.05,0.67704 -0.1515,1.94923 -0.1882,2.85759 -0.5265,11.86476 0.4887,24.10062 5.4176,35.11712 3.7722,8.4662 10.2329,16.1388 19.0462,20.0777 8.1406,3.6497 17.7299,4.0208 26.2676,1.4662 9.4217,-2.8724 16.9181,-10.0146 21.3269,-18.3775 5.8934,-10.9063 7.3401,-23.46977 7.0948,-35.60068 -0.032,-1.8065 -0.1643,-3.96938 -0.2919,-5.54043 -0.4072,-4.82837 -1.2319,-9.6316 -2.6245,-14.29077 -0.1674,-0.48755 -0.5357,-1.73439 -0.8305,-2.49875 -3.1744,-8.97919 -8.8285,-17.56545 -17.4663,-22.49854 -5.1751,-3.04171 -11.1868,-4.53476 -17.223,-4.70119 z m -1.0998,5.57157 c 6.7879,-0.0664 13.5403,2.53023 18.326,7.17508 7.3115,6.9946 10.9286,16.76457 12.3277,26.4198 1.2978,9.3963 1.2163,18.9991 -0.3796,28.35703 -1.6687,9.4209 -5.5314,18.8864 -12.8856,25.5494 -5.0232,4.5661 -12.0391,6.8622 -18.9132,6.442 -7.0139,-0.2168 -13.7205,-3.4981 -18.3098,-8.5571 -6.9649,-7.4648 -10.0144,-17.4911 -11.2181,-27.2652 -1.091,-9.69406 -0.9742,-19.58863 1.0348,-29.16812 1.9204,-8.97506 6.1003,-17.96171 13.7518,-23.74004 4.6062,-3.48916 10.4209,-5.264 16.266,-5.21285 z"
       style="font-size:124.846px;font-family:'Source Code Pro';-inkscape-font-specification:'Source Code Pro, Normal';white-space:pre;fill:#f8f9fa;fill-opacity:0.92549;stroke-width:10.2868;stroke-linecap:round;stroke-linejoin:round;paint-order:stroke markers fill"
       id="path44" />
    <path
       id="path31"
       style="font-size:124.846px;font-family:'Source Code Pro';-inkscape-font-specification:'Source Code Pro, Normal';white-space:pre;fill:#f8f9fa;fill-opacity:0.92549;stroke-width:9.9375;stroke-linecap:round;stroke-linejoin:round;paint-order:stroke markers fill"
       d="m 991.15258,938.03923 c -10.05757,0.2249 -20.14065,4.09781 -27.39608,11.40301 -8.17175,8.09369 -12.75385,19.46029 -14.06252,30.96164 -1.11432,9.93515 -0.78507,20.15272 1.76652,29.83582 2.9826,10.9937 9.45506,21.3187 18.99245,27.3496 9.04578,5.5981 20.21711,6.9886 30.44415,4.6863 7.1434,-1.6942 13.5361,-5.9725 18.616,-11.3512 -1.1002,-1.2351 -2.2006,-2.4704 -3.3009,-3.7055 -5.1924,5.313 -11.8496,9.4202 -19.21742,10.2466 -9.25147,1.1754 -19.13788,-1.3547 -26.14452,-7.8874 -7.98821,-7.2717 -12.22533,-18.0317 -13.60941,-28.7594 -1.20854,-9.79538 -0.9073,-19.91748 1.77253,-29.43907 2.69312,-9.33346 8.21522,-18.12004 16.46847,-23.11839 7.25018,-4.43091 16.18778,-5.69325 24.37826,-3.811 5.08059,1.28703 9.76029,4.04228 13.68589,7.58315 l 3.4159,-3.98362 c -4.0817,-3.85979 -8.9321,-6.97 -14.2438,-8.6421 -3.74565,-1.13313 -7.67442,-1.49858 -11.56552,-1.36844 z"
       sodipodi:nodetypes="cccccccccccccccccc" />
    <path
       style="font-size:124.846px;font-family:'Source Code Pro';-inkscape-font-specification:'Source Code Pro, Normal';baseline-shift:baseline;white-space:pre;display:inline;overflow:visible;vector-effect:none;fill:#e63946;fill-opacity:0.92549;stroke-width:1.66099;stroke-linecap:round;stroke-linejoin:round;paint-order:stroke markers fill;enable-background:accumulate;stop-color:#000000"
       d="m 905.97318,938.04349 c -3.65401,0.19269 -7.10593,3.29473 -7.02031,7.08518 -0.26664,2.9845 1.24648,6.1769 4.12598,7.32091 3.60302,1.50815 8.60018,0.8363 10.73537,-2.74021 1.47488,-2.77728 1.45328,-6.6383 -0.71189,-9.06068 -1.78631,-2.01905 -4.48033,-2.87595 -7.12915,-2.6052 z"
       id="path47" />
    <path
       style="font-size:124.846px;font-family:'Source Code Pro';-inkscape-font-specification:'Source Code Pro, Normal';baseline-shift:baseline;white-space:pre;display:inline;overflow:visible;vector-effect:none;fill:#f8f9fa;fill-opacity:0.92549;stroke-width:1.66099;stroke-linecap:round;stroke-linejoin:round;paint-order:stroke markers fill;enable-background:accumulate;stop-color:#000000"
       d="m 1315.7703,953.24409 c 16.6272,11.21383 49.8816,33.64149 49.8816,33.64149 0,0 2.4782,1.6798 2.454,2.96164 -0.034,1.77727 -3.5558,3.9744 -3.5558,3.9744 0,0 -32.5198,21.93238 -48.7798,32.89848 v 5.4404 c 13.2366,-8.9781 26.4732,-17.9563 39.7097,-26.9343 5.7578,-3.9055 11.5155,-7.81081 17.2733,-11.71616 0.3558,-0.19407 2.7965,-2.3334 2.6793,-3.67156 -0.1125,-1.28645 -2.3097,-3.20269 -2.6793,-3.38761 -18.9944,-12.88238 -37.9887,-25.76474 -56.983,-38.6471 0,1.81341 0,3.6269 0,5.44032 z"
       id="path62"
       sodipodi:nodetypes="ccscccscsccc" />
    <path
       style="font-size:124.846px;font-family:'Source Code Pro';-inkscape-font-specification:'Source Code Pro, Normal';baseline-shift:baseline;white-space:pre;display:inline;overflow:visible;vector-effect:none;fill:#f8f9fa;fill-opacity:0.92549;stroke-width:1.66099;stroke-linecap:round;stroke-linejoin:round;paint-order:stroke markers fill;enable-background:accumulate;stop-color:#000000"
       d="m 490.22112,953.24409 c -16.62719,11.21383 -49.88154,33.64149 -49.88154,33.64149 0,0 -2.47835,1.6798 -2.45402,2.96164 0.0335,1.77727 3.5557,3.9744 3.5557,3.9744 0,0 32.51987,21.93238 48.77986,32.89848 v 5.4404 c -13.23656,-8.9781 -26.47314,-17.9563 -39.70976,-26.9343 -5.7577,-3.9055 -11.5154,-7.81081 -17.27318,-11.71616 -0.35587,-0.19407 -2.79655,-2.3334 -2.67927,-3.67156 0.11262,-1.28645 2.30956,-3.20269 2.67927,-3.38761 18.99434,-12.88238 37.98868,-25.76474 56.98294,-38.6471 0,1.81341 0,3.6269 0,5.44032 z"
       id="path63"
       sodipodi:nodetypes="ccscccscsccc" />
    <path
       style="font-size:124.846px;font-family:'Source Code Pro';-inkscape-font-specification:'Source Code Pro, Normal';baseline-shift:baseline;white-space:pre;display:inline;overflow:visible;vector-effect:none;fill:#e63946;fill-opacity:0.92549;stroke-width:1.66099;stroke-linecap:round;stroke-linejoin:round;paint-order:stroke markers fill;enable-background:accumulate;stop-color:#000000"
       d="m 868.92585,983.01972 35.29353,0.16632 c 0.81925,0 1.73255,0.26098 2.33634,1.1954 0.33343,0.60384 0.27508,0.46134 0.3331,3.029 v 55.88596 h 8.04866 c -0.037,-21.9291 -0.0736,-43.85827 -0.11038,-65.78742 h -45.901 z"
       id="path64"
       sodipodi:nodetypes="ccccccccc" />
  </g>
</svg>
